<svg id='calendar-heart_20' width='20' height='20' viewBox='0 0 20 20'
    xmlns='http://www.w3.org/2000/svg' xmlns:xlink='http://www.w3.org/1999/xlink'>
    <rect width='20' height='20' stroke='none' fill='#000000' opacity='0' />


    <g transform="matrix(0.83 0 0 0.83 10 10)">
        <g style="">
            <g transform="matrix(1 0 0 1 0 0)">
                <path
                    style="stroke: none; stroke-width: 2; stroke-dasharray: none; stroke-linecap: round; stroke-dashoffset: 0; stroke-linejoin: round; stroke-miterlimit: 4; fill: none; fill-rule: nonzero; opacity: 1;"
                    transform=" translate(-12, -12)" d="M 0 0 L 24 0 L 24 24 L 0 24 z"
                    stroke-linecap="round" />
            </g>
            <g transform="matrix(1 0 0 1 -0.1 0.9)">
                <path
                    style="stroke: rgb(0,0,0); stroke-width: 1.8072289156626506; stroke-dasharray: none; stroke-linecap: round; stroke-dashoffset: 0; stroke-linejoin: round; stroke-miterlimit: 4; fill: none; fill-rule: nonzero; opacity: 1;"
                    transform=" translate(-12, -13)"
                    d="M 11.5 21 L 6 21 C 4.8954305003384135 21 4 20.104569499661586 4 19 L 4 7 C 4 5.8954305003384135 4.8954305003384135 5 6 5 L 18 5 C 19.104569499661586 5 20 5.895430500338413 20 7 L 20 11"
                    stroke-linecap="round" />
            </g>
            <g transform="matrix(1 0 0 1 3.9 -7.1)">
                <path
                    style="stroke: rgb(0,0,0); stroke-width: 1.8072289156626506; stroke-dasharray: none; stroke-linecap: round; stroke-dashoffset: 0; stroke-linejoin: round; stroke-miterlimit: 4; fill: none; fill-rule: nonzero; opacity: 1;"
                    transform=" translate(-16, -5)" d="M 16 3 L 16 7" stroke-linecap="round" />
            </g>
            <g transform="matrix(1 0 0 1 -4.1 -7.1)">
                <path
                    style="stroke: rgb(0,0,0); stroke-width: 1.8072289156626506; stroke-dasharray: none; stroke-linecap: round; stroke-dashoffset: 0; stroke-linejoin: round; stroke-miterlimit: 4; fill: none; fill-rule: nonzero; opacity: 1;"
                    transform=" translate(-8, -5)" d="M 8 3 L 8 7" stroke-linecap="round" />
            </g>
            <g transform="matrix(1 0 0 1 -0.1 -1.1)">
                <path
                    style="stroke: rgb(0,0,0); stroke-width: 1.8072289156626506; stroke-dasharray: none; stroke-linecap: round; stroke-dashoffset: 0; stroke-linejoin: round; stroke-miterlimit: 4; fill: none; fill-rule: nonzero; opacity: 1;"
                    transform=" translate(-12, -11)" d="M 4 11 L 20 11" stroke-linecap="round" />
            </g>
            <g transform="matrix(1 0 0 1 5.9 6.4)">
                <path
                    style="stroke: rgb(0,0,0); stroke-width: 1.8072289156626506; stroke-dasharray: none; stroke-linecap: round; stroke-dashoffset: 0; stroke-linejoin: round; stroke-miterlimit: 4; fill: none; fill-rule: nonzero; opacity: 1;"
                    transform=" translate(-18, -18.5)"
                    d="M 18 22 L 21.35 18.716 C 21.765032672715513 18.3132597325105 21.99967211563779 17.75987256483155 22.000613693867663 17.18155521604342 C 22.001555272097534 16.603237867255288 21.76871904547038 16.049089586470593 21.355 15.645000000000003 C 20.48604763971452 14.795190524001924 19.09820505482691 14.792529272640682 18.226 15.639000000000003 L 18.002 15.859000000000002 L 17.779 15.639000000000001 C 16.910171397389313 14.789839509237927 15.523079846171557 14.78717884769467 14.651 15.633000000000001 C 14.23583564573708 16.035605162201538 14.001015658384064 16.58891628273227 13.99988576429688 17.16723373968928 C 13.998755870209697 17.745551196646293 14.23141199775615 18.299775653774027 14.645 18.704 L 18 22 z"
                    stroke-linecap="round" />
            </g>
        </g>
    </g>
</svg>
