<svg id='clipboard-text_20' width='20' height='20' viewBox='0 0 20 20'
    xmlns='http://www.w3.org/2000/svg' xmlns:xlink='http://www.w3.org/1999/xlink'>
    <rect width='20' height='20' stroke='none' fill='#000000' opacity='0' />


    <g transform="matrix(0.83 0 0 0.83 10 10)">
        <g style="">
            <g transform="matrix(1 0 0 1 0 0)">
                <path
                    style="stroke: none; stroke-width: 2; stroke-dasharray: none; stroke-linecap: round; stroke-dashoffset: 0; stroke-linejoin: round; stroke-miterlimit: 4; fill: none; fill-rule: nonzero; opacity: 1;"
                    transform=" translate(-12, -12)" d="M 0 0 L 24 0 L 24 24 L 0 24 z"
                    stroke-linecap="round" />
            </g>
            <g transform="matrix(1 0 0 1 -0.1 0.9)">
                <path
                    style="stroke: rgb(0,0,0); stroke-width: 1.8072289156626506; stroke-dasharray: none; stroke-linecap: round; stroke-dashoffset: 0; stroke-linejoin: round; stroke-miterlimit: 4; fill: none; fill-rule: nonzero; opacity: 1;"
                    transform=" translate(-12, -13)"
                    d="M 9 5 L 7 5 C 5.8954305003384135 5 5 5.8954305003384135 5 7 L 5 19 C 5 20.104569499661586 5.8954305003384135 21 7 21 L 17 21 C 18.104569499661586 21 19 20.104569499661586 19 19 L 19 7 C 19 5.8954305003384135 18.104569499661586 5 17 5 L 15 5"
                    stroke-linecap="round" />
            </g>
            <g transform="matrix(1 0 0 1 -0.1 -7.1)">
                <rect
                    style="stroke: rgb(0,0,0); stroke-width: 1.8072289156626506; stroke-dasharray: none; stroke-linecap: round; stroke-dashoffset: 0; stroke-linejoin: round; stroke-miterlimit: 4; fill: none; fill-rule: nonzero; opacity: 1;"
                    x="-3" y="-2" rx="2" ry="2" width="6" height="4" />
            </g>
            <g transform="matrix(1 0 0 1 -0.1 -0.1)">
                <path
                    style="stroke: rgb(0,0,0); stroke-width: 1.8072289156626506; stroke-dasharray: none; stroke-linecap: round; stroke-dashoffset: 0; stroke-linejoin: round; stroke-miterlimit: 4; fill: none; fill-rule: nonzero; opacity: 1;"
                    transform=" translate(-12, -12)" d="M 9 12 L 15 12" stroke-linecap="round" />
            </g>
            <g transform="matrix(1 0 0 1 -0.1 3.9)">
                <path
                    style="stroke: rgb(0,0,0); stroke-width: 1.8072289156626506; stroke-dasharray: none; stroke-linecap: round; stroke-dashoffset: 0; stroke-linejoin: round; stroke-miterlimit: 4; fill: none; fill-rule: nonzero; opacity: 1;"
                    transform=" translate(-12, -16)" d="M 9 16 L 15 16" stroke-linecap="round" />
            </g>
        </g>
    </g>
</svg>
