<svg id='devices_20' width='20' height='20' viewBox='0 0 20 20' xmlns='http://www.w3.org/2000/svg'
    xmlns:xlink='http://www.w3.org/1999/xlink'>
    <rect width='20' height='20' stroke='none' fill='#000000' opacity='0' />


    <g transform="matrix(0.83 0 0 0.83 10 10)">
        <g style="">
            <g transform="matrix(1 0 0 1 0 0)">
                <path
                    style="stroke: none; stroke-width: 2; stroke-dasharray: none; stroke-linecap: round; stroke-dashoffset: 0; stroke-linejoin: round; stroke-miterlimit: 4; fill: none; fill-rule: nonzero; opacity: 1;"
                    transform=" translate(-12, -12)" d="M 0 0 L 24 0 L 24 24 L 0 24 z"
                    stroke-linecap="round" />
            </g>
            <g transform="matrix(1 0 0 1 4.9 1.9)">
                <rect
                    style="stroke: rgb(0,0,0); stroke-width: 1.8072289156626506; stroke-dasharray: none; stroke-linecap: round; stroke-dashoffset: 0; stroke-linejoin: round; stroke-miterlimit: 4; fill: none; fill-rule: nonzero; opacity: 1;"
                    x="-4" y="-6" rx="1" ry="1" width="8" height="12" />
            </g>
            <g transform="matrix(1 0 0 1 -1.6 -1.1)">
                <path
                    style="stroke: rgb(0,0,0); stroke-width: 1.8072289156626506; stroke-dasharray: none; stroke-linecap: round; stroke-dashoffset: 0; stroke-linejoin: round; stroke-miterlimit: 4; fill: none; fill-rule: nonzero; opacity: 1;"
                    transform=" translate(-10.5, -11)"
                    d="M 18 8 L 18 5 C 18 4.447715250169207 17.552284749830793 4 17 4 L 4 4 C 3.4477152501692068 4 3 4.447715250169207 3 5 L 3 17 C 3 17.552284749830793 3.4477152501692068 18 4 18 L 13 18"
                    stroke-linecap="round" />
            </g>
            <g transform="matrix(1 0 0 1 4.9 -3.1)">
                <line
                    style="stroke: rgb(0,0,0); stroke-width: 1.8072289156626506; stroke-dasharray: none; stroke-linecap: round; stroke-dashoffset: 0; stroke-linejoin: round; stroke-miterlimit: 4; fill: none; fill-rule: nonzero; opacity: 1;"
                    x1="-1" y1="0" x2="1" y2="0" />
            </g>
        </g>
    </g>
</svg>
